<?xml version="1.0" encoding="UTF-8"?>
<svg id="Layer_1" data-name="Layer 1" xmlns="http://www.w3.org/2000/svg" viewBox="0 0 1264.17 217.92">
  <defs>
    <style>
      .cls-1 {
        fill: #2e2e2f;
      }
    </style>
  </defs>
  <path class="cls-1" d="M107.96,106.33l-20.55-61.46c-4.49-13.44,5.51-27.32,19.69-27.32h69.49c13.83,0,20.95,16.51,11.46,26.56l-62.46,66.1c-5.46,5.77-15.1,3.65-17.62-3.88h0Z"/>
  <path class="cls-1" d="M80.59,94.37l-68.59.36c-9.67-1.62-14.91-12.24-10.3-20.89L48.91,23.4c.51-.55,1.54-1.68,2.08-2.21,5.94-5.81,13.29-4.72,15.79,2.68l21.01,62.25c1.51,4.47-2.24,8.94-6.88,8.27-.11-.02-.21-.02-.32-.02Z"/>
  <path class="cls-1" d="M148.33,141.03l68.59-.36c9.67,1.62,14.91,12.24,10.3,20.89l-47.21,50.44c-.51.55-1.54,1.68-2.08,2.21-5.94,5.81-13.29,4.72-15.79-2.68l-21.01-62.25c-1.51-4.47,2.24-8.94,6.88-8.28.11.02.22.02.32.02Z"/>
  <path class="cls-1" d="M120.83,128.15l20.55,61.46c4.49,13.43-5.51,27.31-19.69,27.31H52.21c-13.83,0-20.95-16.51-11.46-26.56l62.46-66.1c5.46-5.77,15.1-3.65,17.62,3.88Z"/>
  <path class="cls-1" d="M295.14,162.67v-16.94l103.05-89.38h-96.27v-15.67h122v16.94l-101.56,89.17h101.56v15.89h-128.78ZM513.73,165c-15.96,0-28.52-1.73-37.7-5.19-9.18-3.53-15.71-9.39-19.59-17.58-3.88-8.26-5.82-19.52-5.82-33.78V40.67h20.44v67.78c0,8.05.63,14.69,1.91,19.91,1.34,5.15,3.67,9.18,6.99,12.07,3.32,2.82,7.98,4.8,13.98,5.93,6.07,1.13,13.87,1.69,23.41,1.69,14.12,0,25.2-1.16,33.25-3.5,8.05-2.33,13.73-5.96,17.05-10.91,3.39-5.01,5.08-11.51,5.08-19.49V40.67h20.33v122h-20.33v-16.2c-2.96,4.1-6.71,7.52-11.23,10.27s-10.55,4.8-18.11,6.14c-7.56,1.41-17.44,2.12-29.65,2.12ZM627.47,162.67V0h20.33v162.67h-20.33ZM756.78,165c-13.06,0-24.11-.99-33.15-2.96-8.97-1.98-16.03-6.43-21.18-13.35v13.98h-20.33V0h20.33v54.54c5.15-6.85,12.21-11.26,21.18-13.24,9.04-1.98,20.09-2.97,33.15-2.97s25.27.71,34.74,2.12c9.53,1.41,17.23,4.24,23.09,8.47,5.86,4.24,10.13,10.52,12.81,18.85,2.68,8.33,4.02,19.42,4.02,33.25s-1.34,25.66-4.02,34.21c-2.68,8.54-6.96,14.97-12.81,19.28-5.86,4.24-13.56,7.02-23.09,8.37-9.46,1.41-21.04,2.12-34.74,2.12ZM811.11,101.03c0-10.1-.53-18.18-1.59-24.25-.99-6.07-3.21-10.63-6.67-13.66-3.46-3.11-8.86-5.19-16.2-6.25-7.27-1.06-17.23-1.59-29.87-1.59-11.51,0-20.83.53-27.96,1.59-7.13,1.06-12.6,3.14-16.42,6.25-3.81,3.04-6.42,7.59-7.84,13.66s-2.12,14.16-2.12,24.25.71,18.82,2.12,25.1c1.41,6.28,4.02,11.01,7.84,14.19,3.81,3.11,9.29,5.19,16.42,6.25,7.13.99,16.45,1.48,27.96,1.48,12.64,0,22.59-.49,29.87-1.48,7.34-1.06,12.74-3.14,16.2-6.25,3.46-3.18,5.68-7.91,6.67-14.19,1.06-6.28,1.59-14.65,1.59-25.1ZM994.85,126.45c0,9.11-1.38,16.27-4.13,21.5-2.68,5.23-6.81,9.04-12.39,11.44-5.58,2.4-12.71,3.92-21.39,4.55-8.61.71-18.89,1.06-30.82,1.06-13.63,0-25.2-.7-34.74-2.12-9.46-1.34-17.12-4.13-22.98-8.37-5.79-4.31-10.02-10.73-12.71-19.28-2.61-8.54-3.92-19.95-3.92-34.21s1.27-24.92,3.81-33.25c2.61-8.33,6.81-14.62,12.6-18.85,5.79-4.24,13.38-7.06,22.77-8.47,9.46-1.41,21-2.12,34.63-2.12,15.6,0,28.52,1.09,38.76,3.28,10.24,2.19,17.86,6.35,22.88,12.5,5.08,6.14,7.63,15.14,7.63,27.01v26.16h-122.64c.07,9.04.7,16.27,1.9,21.71,1.2,5.44,3.6,9.53,7.2,12.28,3.6,2.75,8.97,4.59,16.1,5.51,7.2.85,16.77,1.27,28.7,1.27,10.73,0,19.38-.21,25.95-.63,6.64-.42,11.65-1.34,15.04-2.75,3.46-1.48,5.79-3.67,6.99-6.57,1.2-2.89,1.8-6.78,1.8-11.65h18.96ZM925.59,55.28c-11.51,0-20.79.42-27.85,1.27-6.99.85-12.32,2.51-15.99,4.98-3.67,2.4-6.18,6-7.52,10.8-1.27,4.8-1.94,11.12-2.01,18.96h103.15v-10.17c0-5.08-.6-9.28-1.8-12.6-1.13-3.39-3.39-6.04-6.78-7.94-3.39-1.98-8.4-3.35-15.04-4.13-6.57-.78-15.29-1.16-26.16-1.16ZM1023.34,162.67V40.67h20.33v16.84c2.26-3.6,4.52-6.6,6.78-9,2.33-2.4,5.33-4.31,9-5.72,3.74-1.41,8.79-2.4,15.14-2.97,6.35-.64,14.72-.95,25.1-.95v17.05c-13.98,0-24.82.49-32.51,1.48-7.63.99-13.1,2.68-16.42,5.08-3.32,2.33-5.33,5.58-6.04,9.74-.7,4.17-1.06,9.46-1.06,15.89v74.56h-20.33ZM1190.04,165c-14.62,0-26.69-.77-36.22-2.33-9.46-1.48-16.52-4.8-21.18-9.95-4.59-5.16-6.88-13.17-6.88-24.04s2.16-19.2,6.46-24.36c4.38-5.22,11.26-8.61,20.65-10.17,9.46-1.55,21.85-2.33,37.17-2.33,12.43,0,22.84.28,31.24.85,8.4.56,15.92,1.55,22.56,2.97-.14-9.39-.78-16.77-1.91-22.13-1.13-5.44-3.25-9.46-6.35-12.07s-7.66-4.27-13.66-4.98c-5.93-.78-13.84-1.16-23.72-1.16-11.3,0-20.16.25-26.58.74-6.35.49-10.98,1.38-13.87,2.65-2.9,1.27-4.73,3.11-5.51,5.51-.7,2.4-1.06,5.51-1.06,9.32h-20.33c0-7.63,1.03-13.77,3.07-18.43,2.12-4.66,5.68-8.19,10.7-10.59,5.01-2.4,11.86-4.02,20.55-4.87,8.75-.85,19.77-1.27,33.04-1.27,14.26,0,25.74.92,34.42,2.75,8.75,1.84,15.39,5.15,19.91,9.96,4.59,4.73,7.66,11.37,9.21,19.91,1.62,8.54,2.44,19.56,2.44,33.04v58.67h-20.33v-8.37c-2.4,2.54-5.72,4.59-9.95,6.14-4.24,1.55-9.88,2.68-16.94,3.39-6.99.77-15.96,1.16-26.9,1.16ZM1190.04,148.48c12.07,0,21.71-.14,28.91-.42,7.2-.28,12.57-1.06,16.1-2.33,3.6-1.27,5.97-3.32,7.1-6.14,1.13-2.82,1.69-6.78,1.69-11.86v-18.75l-53.8-.64c-9.53-.14-17.23,0-23.09.42-5.79.35-10.2,1.2-13.24,2.54-3.03,1.27-5.08,3.32-6.14,6.14-.99,2.75-1.48,6.5-1.48,11.23s.49,8.23,1.48,10.91c1.06,2.68,3.11,4.66,6.14,5.93,3.04,1.27,7.45,2.08,13.24,2.44,5.86.35,13.56.53,23.09.53Z"/>
</svg>