<?xml version="1.0" encoding="UTF-8"?>
<svg xmlns="http://www.w3.org/2000/svg" version="1.1" viewBox="0 0 1080 1080">
  <defs>
    <style>
      .cls-1 {
        fill: none;
        stroke: #2e2e2f;
        stroke-miterlimit: 10;
        stroke-width: 10px;
      }
    </style>
  </defs>
  <!-- Generator: Adobe Illustrator 28.6.0, SVG Export Plug-In . SVG Version: 1.2.0 Build 709)  -->
  <g>
    <g id="Layer_1">
      <path class="cls-1" d="M511.7,490.6l-89.4-267.2c-19.5-58.4,24-118.8,85.6-118.8h302.1c60.1,0,91.1,71.8,49.8,115.5l-271.6,287.4c-23.7,25.1-65.7,15.9-76.6-16.9h0Z"/>
      <path class="cls-1" d="M392.7,438.6l-298.2,1.6c-42-7-64.8-53.2-44.8-90.8l205.3-219.3c2.2-2.4,6.7-7.3,9-9.6,25.8-25.3,57.8-20.5,68.7,11.7l91.4,270.7c6.6,19.4-9.7,38.9-29.9,36-.5,0-.9,0-1.4,0Z"/>
      <path class="cls-1" d="M687.3,641.4l298.2-1.6c42,7,64.8,53.2,44.8,90.8l-205.3,219.3c-2.2,2.4-6.7,7.3-9,9.6-25.8,25.3-57.8,20.5-68.7-11.7l-91.4-270.7c-6.6-19.4,9.7-38.9,29.9-36,.5,0,1,0,1.4,0h0Z"/>
      <path class="cls-1" d="M567.7,585.4l89.4,267.2c19.5,58.4-24,118.7-85.6,118.7h-302.1c-60.1,0-91.1-71.8-49.8-115.5l271.6-287.4c23.7-25.1,65.7-15.9,76.6,16.9h0Z"/>
    </g>
  </g>
</svg>