<?xml version="1.0" encoding="utf-8"?>
<!-- Generator: Adobe Illustrator 26.3.1, SVG Export Plug-In . SVG Version: 6.00 Build 0)  -->
<svg version="1.1" id="Layer_1" xmlns="http://www.w3.org/2000/svg" xmlns:xlink="http://www.w3.org/1999/xlink" x="0px" y="0px"
	 viewBox="0 0 500 500" style="enable-background:new 0 0 500 500;" xml:space="preserve">
<style type="text/css">
	.st0{fill:#432AF4;}
</style>
<path class="st0" d="M428.2,173c-9.6-51.9-39.1-79.8-94.5-89c-53.9-9.2-108.5-9.6-162.4-0.8c-65,10.4-94.9,41.1-102.5,102.5
	c-1.2,9.6-2.8,18.7-4,28.3c0,24.3,0,48.7,0,73c2,12.4,3.2,24.7,5.6,36.7c12,59.8,43.9,87.8,108.9,95.3c10.8,1.2,21.1,2.8,31.5,4
	c26.3,0,52.3,0,78.2,0c13.6-2,26.7-3.2,40.3-5.6c60.2-10,89-36.3,99.3-92.9C437.7,274.3,437.3,223.3,428.2,173z M173.7,230.8h73
	c10.4,0,19.1,8.4,19.1,19.1c0,10.4-8.8,19.1-19.1,19.1h-73c-10.4,0-19.1-8.4-19.1-19.1C154.5,239.6,162.9,230.8,173.7,230.8z
	 M355.6,321.4h-215c-10.4,0-19.1-8.4-19.1-19.1c0-10.4,8.4-19.1,19.1-19.1h215c10.4,0,19.1,8.4,19.1,19.1S366.3,321.4,355.6,321.4z
	 M359.1,217.3H206.8c-10.4,0-19.1-8.4-19.1-19.1c0-10.4,8.4-19.1,19.1-19.1h152.4c10.4,0,19.1,8.4,19.1,19.1
	C378.3,208.5,369.9,217.3,359.1,217.3z"/>
</svg>
