<?xml version="1.0" encoding="utf-8"?>
<!-- Generator: Adobe Illustrator 26.3.1, SVG Export Plug-In . SVG Version: 6.00 Build 0)  -->
<svg version="1.1" id="Layer_1" xmlns="http://www.w3.org/2000/svg" xmlns:xlink="http://www.w3.org/1999/xlink" x="0px" y="0px"
	 viewBox="0 0 500 200" style="enable-background:new 0 0 500 200;" xml:space="preserve">
<style type="text/css">
	.st0{fill:#FFFFFF;}
</style>
<g>
	<path class="st0" d="M121.7,99.4c-1.1,0-2,0.9-2,2v3.9c0,1.2,0.5,2.2,1.3,3c0.8,0.8,1.8,1.3,3,1.3h57.3c1.1,0,2,0.9,2,2v3.4
		c0,1.1-0.9,2-2,2H124c-3.3,0-6-1.2-8.3-3.4c-2.3-2.3-3.4-5.1-3.4-8.3V85.3c0-3.3,1.2-6,3.4-8.2c2.3-2.4,5.1-3.4,8.3-3.4h57.3
		c1.1,0,2,0.9,2,2V79c0,1.1-0.9,2-2,2H124c-1.2,0-2.2,0.5-3,1.3c-0.8,0.8-1.3,1.8-1.3,3v4.4c0,1.1,0.9,2,2,2h59.5c1.1,0,2,0.9,2,2
		v3.4c0,1.1-0.9,2-2,2h-59.5V99.4z"/>
	<path class="st0" d="M189.1,85.4c0-3.3,1.2-6,3.4-8.3c2.3-2.3,5.1-3.4,8.3-3.4h45.9c3.3,0,6,1.2,8.3,3.4c2.3,2.3,3.4,5.1,3.4,8.3
		v10.7c0,3.3-1.2,6-3.4,8.3c-2.3,2.3-5.1,3.4-8.3,3.4H198c-0.7,0-1.4,0.6-1.4,1.4v6.6c0,0.7-0.6,1.4-1.4,1.4h-4.8
		c-0.7,0-1.4-0.6-1.4-1.4V85.4z M196.5,99c0,0.7,0.6,1.4,1.4,1.4h48.8c1.2,0,2.2-0.5,3-1.3c0.8-0.8,1.3-1.8,1.3-3V85.4
		c0-1.2-0.5-2.2-1.3-3c-0.8-0.8-1.8-1.3-3-1.3h-45.9c-1.2,0-2.2,0.5-3,1.3c-0.8,0.8-1.3,1.8-1.3,3V99z"/>
	<path class="st0" d="M271.6,106.2v8.6c0,1.3-1,2.3-2.3,2.3h-2.9c-1.3,0-2.3-1-2.3-2.3V85.4c0-3.3,1.2-6,3.4-8.3
		c2.3-2.3,5.1-3.4,8.3-3.4h45.9c3.3,0,6,1.2,8.3,3.4c2.3,2.3,3.4,5.1,3.4,8.3v29.3c0,1.3-1,2.3-2.3,2.3h-2.9c-1.3,0-2.3-1-2.3-2.3
		v-8.6c0-1.3-1-2.3-2.3-2.3h-49.7C272.7,103.9,271.6,104.9,271.6,106.2z M323.7,96.4c1.3,0,2.3-1,2.3-2.3v-8.7c0-1.2-0.5-2.2-1.3-3
		c-0.8-0.8-1.8-1.3-3-1.3h-45.9c-1.2,0-2.2,0.5-3,1.3c-0.8,0.8-1.3,1.8-1.3,3v8.7c0,1.3,1,2.3,2.3,2.3H323.7z"/>
	<path class="st0" d="M407.9,90.8c0.4,0,0.6,0.3,0.6,0.6v13.9c0,3.3-1.2,6-3.4,8.3c-2.3,2.3-5.1,3.4-8.3,3.4H351
		c-3.3,0-6-1.2-8.3-3.4c-2.3-2.3-3.4-5.1-3.4-8.3V85.4c0-3.3,1.2-6,3.4-8.2c2.3-2.4,5.1-3.4,8.3-3.4h53.8c2.1,0,3.7,1.6,3.7,3.7l0,0
		c0,2.1-1.6,3.7-3.7,3.7H351c-1.2,0-2.2,0.5-3,1.3c-0.8,0.8-1.3,1.8-1.3,3v19.9c0,1.2,0.5,2.2,1.3,3c0.8,0.8,1.8,1.3,3,1.3h45.9
		c1.2,0,2.2-0.5,3-1.3c0.8-0.8,1.3-1.8,1.3-3v-6.5c0-0.4-0.3-0.6-0.6-0.6h-1.3c-0.4,0-0.6-0.3-0.6-0.6v-6.2c0-0.4,0.3-0.6,0.6-0.6
		L407.9,90.8L407.9,90.8z"/>
	<path class="st0" d="M423.6,99.4c-1,0-1.7,0.8-1.7,1.7v4.3c0,1.2,0.5,2.2,1.3,3c0.8,0.8,1.8,1.3,3,1.3h57.5c1,0,1.7,0.8,1.7,1.7v4
		c0,1-0.8,1.7-1.7,1.7h-57.5c-3.3,0-6-1.2-8.3-3.4c-2.3-2.3-3.4-5.1-3.4-8.3V85.4c0-3.3,1.2-6,3.4-8.2c2.3-2.4,5.1-3.4,8.3-3.4h57.5
		c1,0,1.7,0.8,1.7,1.7v4c0,1-0.8,1.7-1.7,1.7h-57.5c-1.2,0-2.2,0.5-3,1.3c-0.8,0.8-1.3,1.8-1.3,3v4.8c0,1,0.8,1.7,1.7,1.7h60.1
		c1,0,1.7,0.8,1.7,1.7v4c0,1-0.8,1.7-1.7,1.7L423.6,99.4L423.6,99.4z"/>
</g>
<path class="st0" d="M101.2,78c-2.2-11.8-8.9-18.1-21.4-20.2c-12.2-2.1-24.6-2.2-36.8-0.2C28.2,60,21.4,67,19.7,80.9
	c-0.3,2.2-0.6,4.3-0.9,6.4c0,5.5,0,11,0,16.6c0.5,2.8,0.7,5.6,1.3,8.3c2.7,13.6,9.9,19.9,24.7,21.6c2.4,0.3,4.8,0.6,7.1,0.9
	c6,0,11.8,0,17.7,0c3.1-0.5,6.1-0.7,9.1-1.3c13.7-2.3,20.2-8.2,22.5-21.1C103.4,101,103.3,89.4,101.2,78z M43.5,91.1h16.6
	c2.4,0,4.3,1.9,4.3,4.3c0,2.4-2,4.3-4.3,4.3H43.5c-2.4,0-4.3-1.9-4.3-4.3C39.2,93.1,41.1,91.1,43.5,91.1z M84.8,111.7H36
	c-2.4,0-4.3-1.9-4.3-4.3c0-2.4,1.9-4.3,4.3-4.3h48.8c2.4,0,4.3,1.9,4.3,4.3C89.1,109.8,87.2,111.7,84.8,111.7z M85.6,88.1H51
	c-2.4,0-4.3-1.9-4.3-4.3c0-2.4,1.9-4.3,4.3-4.3h34.6c2.4,0,4.3,1.9,4.3,4.3C89.9,86.1,88,88.1,85.6,88.1z"/>
</svg>
