<svg enable-background="new 0 0 500 500" viewBox="0 0 500 500" xmlns="http://www.w3.org/2000/svg"><path d="m428.2 173c-9.6-51.9-39.1-79.8-94.5-89-53.9-9.2-108.5-9.6-162.4-.8-65 10.4-94.9 41.1-102.5 102.5-1.2 9.6-2.8 18.7-4 28.3v73c2 12.4 3.2 24.7 5.6 36.7 12 59.8 43.9 87.8 108.9 95.3 10.8 1.2 21.1 2.8 31.5 4h78.2c13.6-2 26.7-3.2 40.3-5.6 60.2-10 89-36.3 99.3-92.9 9.1-50.2 8.7-101.2-.4-151.5zm-254.5 57.8h73c10.4 0 19.1 8.4 19.1 19.1 0 10.4-8.8 19.1-19.1 19.1h-73c-10.4 0-19.1-8.4-19.1-19.1-.1-10.3 8.3-19.1 19.1-19.1zm181.9 90.6h-215c-10.4 0-19.1-8.4-19.1-19.1 0-10.4 8.4-19.1 19.1-19.1h215c10.4 0 19.1 8.4 19.1 19.1s-8.4 19.1-19.1 19.1zm3.5-104.1h-152.3c-10.4 0-19.1-8.4-19.1-19.1 0-10.4 8.4-19.1 19.1-19.1h152.4c10.4 0 19.1 8.4 19.1 19.1-0 10.3-8.4 19.1-19.2 19.1z" fill="#432af4"/></svg>