<svg enable-background="new 0 0 500 200" viewBox="0 0 500 200" xmlns="http://www.w3.org/2000/svg"><g enable-background="new" fill="#1c212d"><path d="m130.9 100.3v5.7c0 1.1.4 2.1 1.2 2.9s1.8 1.2 2.9 1.2h56.8v7.2h-56.8c-3.1 0-5.8-1.1-7.9-3.3-2.2-2.2-3.3-4.8-3.3-7.9v-19.2c0-3.1 1.1-5.7 3.3-7.9s4.8-3.3 7.9-3.3h56.8v7.2h-56.8c-1.1 0-2.1.4-2.9 1.2s-1.2 1.8-1.2 2.9v6.2h60.8v7.2h-60.8z"/><path d="m265.3 117.2h-56.8c-3.1 0-5.8-1.1-7.9-3.3-2.2-2.2-3.3-4.8-3.3-7.9v-19.1c0-3.1 1.1-5.7 3.3-7.9s4.8-3.3 7.9-3.3h56.8v7.2h-56.8c-1.1 0-2.1.4-2.9 1.2s-1.2 1.8-1.2 2.9v19c0 1.1.4 2.1 1.2 2.9s1.8 1.2 2.9 1.2h56.8z"/><path d="m337.2 106c0 3.1-1.1 5.8-3.3 7.9-2.2 2.2-4.8 3.3-7.9 3.3h-43.9c-3.1 0-5.8-1.1-7.9-3.3-2.2-2.2-3.3-4.8-3.3-7.9v-19.1c0-3.1 1.1-5.7 3.3-7.9s4.8-3.3 7.9-3.3h43.9c3.1 0 5.8 1.1 7.9 3.3 2.2 2.2 3.3 4.8 3.3 7.9zm-7.2-19.1c0-1.1-.4-2.1-1.2-2.9s-1.8-1.2-2.9-1.2h-43.9c-1.1 0-2.1.4-2.9 1.2s-1.2 1.8-1.2 2.9v19.1c0 1.1.4 2.1 1.2 2.9s1.8 1.2 2.9 1.2h43.9c1.1 0 2.1-.4 2.9-1.2s1.2-1.8 1.2-2.9z"/><path d="m349.9 104v13.2h-7.2v-32.6c0-2.9 1-5.2 3.1-6.9 1.7-1.3 3.6-2 5.8-2h44.2c3.5 0 6.5 1.1 9.2 3.2 3.3 2.6 5 6.3 5 11 0 3.5-1.1 6.5-3.2 9.2-1.6 2.1-3.7 3.5-6.1 4.2l6.7 7.2 2.5 2.6-5.2 4.9-2.5-2.6-8.6-9.1-2.2-2.3zm46-7.1c2.7 0 4.7-1 5.9-2.9.4-.7.7-1.4.9-2.3.1-.3.1-.7.1-1s.1-.5.1-.8c0-2.7-1-4.7-2.9-5.9-.7-.4-1.4-.7-2.3-.9-.3-.1-.7-.1-1-.1s-.5 0-.8-.1h-44.2c-.7 0-1.2.2-1.5.7-.1.2-.2.4-.2.6v.3 12.5h45.9z"/><path d="m422.8 100.3v5.7c0 1.1.4 2.1 1.2 2.9s1.8 1.2 2.9 1.2h56.8v7.2h-56.8c-3.1 0-5.8-1.1-7.9-3.3-2.2-2.2-3.3-4.8-3.3-7.9v-19.2c0-3.1 1.1-5.7 3.3-7.9s4.8-3.3 7.9-3.3h56.8v7.2h-56.8c-1.1 0-2.1.4-2.9 1.2s-1.2 1.8-1.2 2.9v6.2h60.8v7.2h-60.8z"/></g><path d="m104.7 80.1c-2.1-11.2-8.4-17.2-20.4-19.2-11.6-2-23.4-2.1-35-.2-14 2.2-20.5 8.9-22.1 22.1-.3 2.1-.6 4-.9 6.1v15.8c.4 2.7.7 5.3 1.2 7.9 2.6 12.9 9.5 18.9 23.5 20.6 2.3.3 4.6.6 6.8.9h16.9c2.9-.4 5.8-.7 8.7-1.2 13-2.2 19.2-7.8 21.4-20.1 1.9-10.8 1.9-21.8-.1-32.7zm-54.9 12.5h15.8c2.2 0 4.1 1.8 4.1 4.1 0 2.2-1.9 4.1-4.1 4.1h-15.8c-2.2 0-4.1-1.8-4.1-4.1-.1-2.2 1.7-4.1 4.1-4.1zm39.2 19.6h-46.4c-2.2 0-4.1-1.8-4.1-4.1 0-2.2 1.8-4.1 4.1-4.1h46.4c2.2 0 4.1 1.8 4.1 4.1 0 2.2-1.8 4.1-4.1 4.1zm.8-22.5h-32.9c-2.2 0-4.1-1.8-4.1-4.1 0-2.2 1.8-4.1 4.1-4.1h32.9c2.2 0 4.1 1.8 4.1 4.1 0 2.2-1.8 4.1-4.1 4.1z" fill="#432af4"/></svg>
