<?xml version="1.0" encoding="UTF-8"?>
<svg xmlns="http://www.w3.org/2000/svg" viewBox="0 0 240 240" aria-hidden="true">
  <defs>
    <style>.cls-1{fill:#969696;}</style>
  </defs>
  <!-- Zulbera diamond/symbol centered in square (from Zulbera-Text-Logo) -->
  <g transform="translate(7,18)">
    <path class="cls-1" d="M107.96,106.33l-20.55-61.46c-4.49-13.44,5.51-27.32,19.69-27.32h69.49c13.83,0,20.95,16.51,11.46,26.56l-62.46,66.1c-5.46,5.77-15.1,3.65-17.62-3.88h0Z"/>
    <path class="cls-1" d="M80.59,94.37l-68.59.36c-9.67-1.62-14.91-12.24-10.3-20.89L48.91,23.4c.51-.55,1.54-1.68,2.08-2.21,5.94-5.81,13.29-4.72,15.79,2.68l21.01,62.25c1.51,4.47-2.24,8.94-6.88,8.27-.11-.02-.21-.02-.32-.02Z"/>
    <path class="cls-1" d="M148.33,141.03l68.59-.36c9.67,1.62,14.91,12.24,10.3,20.89l-47.21,50.44c-.51.55-1.54,1.68-2.08,2.21-5.94,5.81-13.29,4.72-15.79-2.68l-21.01-62.25c-1.51-4.47,2.24-8.94,6.88-8.28.11.02.22.02.32.02Z"/>
    <path class="cls-1" d="M120.83,128.15l20.55,61.46c4.49,13.43-5.51,27.31-19.69,27.31H52.21c-13.83,0-20.95-16.51-11.46-26.56l62.46-66.1c5.46-5.77,15.1-3.65,17.62,3.88Z"/>
  </g>
</svg>
